<svg t="1737451084314" class="icon" viewBox="0 0 1073 1024" version="1.1" xmlns="http://www.w3.org/2000/svg" p-id="7935" width="256" height="256"><path d="M836.682927 549.463415a237.268293 237.268293 0 1 0 0 474.536585 237.268293 237.268293 0 0 0 0-474.536585z m0 49.951219a187.317073 187.317073 0 1 1 0 374.634146 187.317073 187.317073 0 0 1 0-374.634146zM437.073171 12.487805a24.97561 24.97561 0 0 1 24.975609 24.97561v339.443512a24.97561 24.97561 0 0 1-39.211707 20.554927l-108.319219-75.026732a24.97561 24.97561 0 0 0-29.221464 0.549463L189.814634 394.614634A24.97561 24.97561 0 0 1 149.853659 374.634146V37.463415a24.97561 24.97561 0 0 1 24.975609-24.97561h262.243903z m-24.97561 49.951219H199.804878v262.218927l55.520781-41.634341a74.926829 74.926829 0 0 1 83.368585-4.395708l4.245854 2.747318 69.157463 47.853268V62.439024z" p-id="7936"></path><path d="M924.097561 0a99.902439 99.902439 0 0 1 99.902439 99.902439v387.996098A360.647805 360.647805 0 0 0 861.658537 449.560976C661.653854 449.560976 499.512195 611.702634 499.512195 811.707317c0 68.558049 19.05639 132.670439 52.149073 187.317073H99.902439a99.902439 99.902439 0 0 1-99.902439-99.902439V99.902439a99.902439 99.902439 0 0 1 99.902439-99.902439h824.195122z m3.746341 50.076098L924.097561 49.95122H99.902439a49.95122 49.95122 0 0 0-49.826341 46.204878L49.95122 99.902439v799.219512a49.95122 49.95122 0 0 0 46.204878 49.826342L99.902439 949.073171h373.160585l-1.723317-4.845269a411.348293 411.348293 0 0 1-21.628878-121.131707L449.560976 811.707317C449.560976 584.104585 634.055805 399.609756 861.658537 399.609756c36.564293 0 72.454244 4.770341 106.995512 14.036293l5.394731 1.523512V99.902439a49.95122 49.95122 0 0 0-42.383609-49.37678l-3.846244-0.449561z" p-id="7937"></path><path d="M839.180488 674.341463a24.97561 24.97561 0 0 1 24.80078 22.053464L864.156098 699.317073v64.936586h54.946341a24.97561 24.97561 0 0 1 2.922146 49.77639l-2.922146 0.174829h-54.946341v44.956098a24.97561 24.97561 0 0 1-49.776391 2.922146L814.204878 859.160976v-44.956098h-54.946341a24.97561 24.97561 0 0 1-2.922147-49.77639l2.922147-0.174829h54.946341V699.317073a24.97561 24.97561 0 0 1 24.97561-24.97561z" p-id="7938"></path></svg>