<svg t="1737451790966" class="icon" viewBox="0 0 1024 1024" version="1.1" xmlns="http://www.w3.org/2000/svg" p-id="28338" width="256" height="256"><path d="M904.533333 364.245333V184.064a120.106667 120.106667 0 0 0-120.064-120.106667H184.064a120.106667 120.106667 0 0 0-120.106667 120.106667v600.405333A120.106667 120.106667 0 0 0 184.064 904.533333h600.405333a120.106667 120.106667 0 0 0 120.064-120.064V364.245333zM141.568 141.525333c11.264-11.264 26.581333-17.621333 42.538667-17.578666h600.490666c33.194667 0 60.032 26.965333 59.946667 60.16V304.213333H123.904V184.106667c0-15.957333 6.357333-31.274667 17.664-42.538667z m252.501333 432.896V364.245333h180.352v210.176H394.069333z m180.352 59.989334v210.133333H394.069333V634.453333h180.352zM334.08 574.421333H123.946667V364.245333H334.08v210.176z m-192.512 252.586667a59.562667 59.562667 0 0 1-17.621333-42.410667v-150.186666H334.08v210.133333H184.106667a59.733333 59.733333 0 0 1-42.538667-17.493333z m702.976-42.410667a59.818667 59.818667 0 0 1-59.946667 59.946667h-150.186666V634.453333h210.133333v150.186667z m0-210.176H634.453333V364.245333h210.133334v210.176z" p-id="28339"></path><path d="M591.402667 763.946667a170.538667 170.538667 0 1 0 341.077333 0 170.538667 170.538667 0 1 0-341.077333 0Z" fill="#FFFFFF" p-id="28340"></path><path d="M761.898667 996.906667a232.96 232.96 0 1 0 0-465.92 232.96 232.96 0 0 0 0 465.92z m22.058666-352v96.981333h97.024v44.032h-97.024v97.109333h-44.032V785.92h-97.066666v-44.032h97.066666v-96.981333h44.032z" p-id="28341"></path></svg>