<svg t="1736941553916" class="icon" viewBox="0 0 1024 1024" version="1.1" xmlns="http://www.w3.org/2000/svg" p-id="5589" width="256" height="256"><path d="M760.8 535.9c-29 0-56.5 6.1-81.5 17.1l-58.4-98.9c56-35.8 93.1-98.5 93.1-169.7 0-111-90.3-201.3-201.3-201.3-111 0-201.3 90.3-201.3 201.3 0 71.2 37.2 133.9 93.1 169.7-24.1 40.5-49.3 81.7-60.8 98.7-24.8-10.8-52.1-16.8-80.9-16.8C151 536 60.1 626.9 60.1 738.7S151 941.4 262.8 941.4s202.7-90.9 202.7-202.7c0-72.3-38.1-135.9-95.2-171.8 1.2-1.8 2.4-3.7 3.8-5.8 6.6-10.2 15.5-24.5 26.5-42.5 11.6-19 23.1-38.3 30.2-50.2 25 11.2 52.7 17.4 81.8 17.4 29.1 0 56.8-6.2 81.8-17.4l58.3 98.8c-56.9 35.9-94.7 99.4-94.7 171.5 0 111.8 90.9 202.7 202.7 202.7s202.7-90.9 202.7-202.7-90.8-202.8-202.6-202.8zM158.1 875.8c-0.4-1.7-0.6-3.4-0.7-5.1L156 834c-0.3-9.6 3.3-18.8 10.1-25.9 7.4-7.7 17.5-11.9 28.5-11.9h136.6c21.3 0 38.6 16.4 38.6 36.6v36.7c0 1.7-0.1 3.3-0.4 4.9-29.4 23.1-66.4 36.8-106.5 36.8-39.3 0.1-75.7-13.2-104.8-35.4z m64.2-146.9v-54.5c0-20.5 16.7-37.2 37.2-37.2h6.8c20.5 0 37.2 16.7 37.2 37.2v54.5c0 20.5-16.7 37.2-37.2 37.2h-6.8c-20.5 0.1-37.2-16.6-37.2-37.2z m213.3 9.7c0 39.5-13.3 76-35.8 105.1v-10.9c0-36.7-30.8-66.6-68.6-66.6h-8.9c7.1-10.7 11.3-23.5 11.3-37.2v-54.5c0-37.1-30.2-67.2-67.2-67.2h-6.8c-37.1 0-67.2 30.2-67.2 67.2V729c0 13.8 4.2 26.6 11.3 37.2h-8.9c-18.9 0-37.1 7.7-50.1 21.1-12.6 13-19.1 30-18.5 47.9l0.4 9.1c-22.7-29.2-36.2-65.9-36.2-105.6 0-95.2 77.5-172.7 172.7-172.7s172.5 77.4 172.5 172.6z m-82.1-181.3c0.4 0.2 0.8 0.4 1.3 0.6v0.1c-0.5-0.3-0.9-0.5-1.3-0.7z m-12.1-272.9c0-94.5 76.9-171.3 171.3-171.3S684 190 684 284.4c0 39.1-13.2 75.1-35.3 104v-10.5c0-36.5-30.6-66.3-68.2-66.3h-9.3c7.4-10.9 11.7-24 11.7-38.1V222c0-37.6-30.6-68.1-68.1-68.1h-4.2c-37.6 0-68.1 30.6-68.1 68.1v51.5c0 14.1 4.3 27.3 11.7 38.1H445c-18.8 0-36.9 7.6-49.8 20.9-12.5 12.9-19 29.8-18.4 47.6l0.3 8.7c-22.3-28.8-35.7-65.1-35.7-104.4z m131.1-10.9V222c0-21 17.1-38.1 38.1-38.1h4.2c21 0 38.1 17.1 38.1 38.1v51.5c0 21-17.1 38.1-38.1 38.1h-4.2c-21 0.1-38.1-17-38.1-38.1z m-63.7 147c-0.3-1.6-0.6-3.3-0.6-5l-1.5-36.4c-0.3-9.5 3.2-18.6 10-25.7 7.3-7.6 17.4-11.8 28.2-11.8h135.6c21.1 0 38.2 16.3 38.2 36.3v36.4c0 1.6-0.1 3.3-0.4 4.9-29.1 22.9-65.8 36.5-105.6 36.5-39 0-75-13.1-103.9-35.2z m352 490.8c-95.2 0-172.7-77.5-172.7-172.7s77.5-172.7 172.7-172.7 172.7 77.5 172.7 172.7S856 911.3 760.8 911.3z" p-id="5590"></path><path d="M848.2 723.6h-72.4v-72.4c0-8.3-6.7-15-15-15s-15 6.7-15 15v72.4h-72.4c-8.3 0-15 6.7-15 15s6.7 15 15 15h72.4V826c0 8.3 6.7 15 15 15s15-6.7 15-15v-72.4h72.4c8.3 0 15-6.7 15-15s-6.7-15-15-15z" p-id="5591"></path></svg>